<mxfile host="Electron" agent="Mozilla/5.0 (Windows NT 10.0; Win64; x64) AppleWebKit/537.36 (KHTML, like Gecko) draw.io/26.0.16 Chrome/132.0.6834.196 Electron/34.2.0 Safari/537.36" version="26.0.16" pages="2">
  <diagram name="Linear" id="PtbIdiAAmufMy-PxeGCJ">
    <mxGraphModel dx="1434" dy="956" grid="1" gridSize="10" guides="1" tooltips="1" connect="1" arrows="1" fold="1" page="1" pageScale="1" pageWidth="850" pageHeight="1100" math="0" shadow="0">
      <root>
        <mxCell id="0" />
        <mxCell id="1" parent="0" />
        <mxCell id="0vqSvFCHeL_Z8okukEM--6" value="" style="rounded=0;whiteSpace=wrap;html=1;fillColor=#4D4D4D;fontColor=#ffffff;strokeColor=#999999;" vertex="1" parent="1">
          <mxGeometry x="120" y="80" width="480" height="360" as="geometry" />
        </mxCell>
        <mxCell id="Ho30ZyJWxGifIYQST-K1-1" value="&lt;font style=&quot;font-size: 18px;&quot;&gt;Prepare&lt;/font&gt;" style="rounded=1;whiteSpace=wrap;html=1;fillColor=#CCFFFF;strokeColor=#6c8ebf;" parent="1" vertex="1">
          <mxGeometry x="160" y="120" width="120" height="40" as="geometry" />
        </mxCell>
        <mxCell id="Ho30ZyJWxGifIYQST-K1-8" style="edgeStyle=orthogonalEdgeStyle;rounded=0;orthogonalLoop=1;jettySize=auto;html=1;exitX=0.5;exitY=1;exitDx=0;exitDy=0;strokeWidth=3;strokeColor=#00FF00;" parent="1" source="Ho30ZyJWxGifIYQST-K1-2" target="Ho30ZyJWxGifIYQST-K1-3" edge="1">
          <mxGeometry relative="1" as="geometry" />
        </mxCell>
        <mxCell id="Ho30ZyJWxGifIYQST-K1-2" value="Infer" style="rounded=1;whiteSpace=wrap;html=1;fontSize=18;fillColor=#CCFFFF;strokeColor=#6c8ebf;" parent="1" vertex="1">
          <mxGeometry x="160" y="200" width="120" height="40" as="geometry" />
        </mxCell>
        <mxCell id="Ho30ZyJWxGifIYQST-K1-10" style="edgeStyle=orthogonalEdgeStyle;rounded=0;orthogonalLoop=1;jettySize=auto;html=1;exitX=0.5;exitY=1;exitDx=0;exitDy=0;entryX=0.5;entryY=0;entryDx=0;entryDy=0;strokeWidth=3;strokeColor=#00FF00;" parent="1" source="Ho30ZyJWxGifIYQST-K1-3" target="Ho30ZyJWxGifIYQST-K1-4" edge="1">
          <mxGeometry relative="1" as="geometry" />
        </mxCell>
        <mxCell id="Ho30ZyJWxGifIYQST-K1-3" value="Extract" style="rounded=1;whiteSpace=wrap;html=1;fontSize=18;fillColor=#CCFFFF;strokeColor=#6c8ebf;" parent="1" vertex="1">
          <mxGeometry x="160" y="280" width="120" height="40" as="geometry" />
        </mxCell>
        <mxCell id="Ho30ZyJWxGifIYQST-K1-4" value="Assess" style="rounded=1;whiteSpace=wrap;html=1;fontSize=18;fillColor=#CCFFFF;strokeColor=#6c8ebf;" parent="1" vertex="1">
          <mxGeometry x="160" y="360" width="120" height="40" as="geometry" />
        </mxCell>
        <mxCell id="Ho30ZyJWxGifIYQST-K1-5" value="" style="endArrow=classic;html=1;rounded=0;exitX=0.5;exitY=1;exitDx=0;exitDy=0;entryX=0.5;entryY=0;entryDx=0;entryDy=0;strokeWidth=3;strokeColor=#00FF00;" parent="1" source="Ho30ZyJWxGifIYQST-K1-1" target="Ho30ZyJWxGifIYQST-K1-2" edge="1">
          <mxGeometry width="50" height="50" relative="1" as="geometry">
            <mxPoint x="10" y="320" as="sourcePoint" />
            <mxPoint x="60" y="270" as="targetPoint" />
          </mxGeometry>
        </mxCell>
        <mxCell id="0vqSvFCHeL_Z8okukEM--1" value="&lt;i&gt;Generate system, agent and user prompts from jina2 template.&lt;/i&gt;" style="rounded=0;whiteSpace=wrap;html=1;align=left;strokeColor=#d6b656;fillColor=#fff2cc;shadow=1;" vertex="1" parent="1">
          <mxGeometry x="360" y="120" width="200" height="40" as="geometry" />
        </mxCell>
        <mxCell id="0vqSvFCHeL_Z8okukEM--2" value="&lt;i&gt;Initiate LLM inference.&lt;/i&gt;" style="rounded=0;whiteSpace=wrap;html=1;align=left;strokeColor=#d6b656;fillColor=#fff2cc;shadow=1;" vertex="1" parent="1">
          <mxGeometry x="360" y="200" width="200" height="40" as="geometry" />
        </mxCell>
        <mxCell id="0vqSvFCHeL_Z8okukEM--3" value="&lt;i&gt;Extract and parse results from LLM reponse.&lt;/i&gt;" style="rounded=0;whiteSpace=wrap;html=1;align=left;strokeColor=#d6b656;fillColor=#fff2cc;shadow=1;" vertex="1" parent="1">
          <mxGeometry x="360" y="280" width="200" height="40" as="geometry" />
        </mxCell>
        <mxCell id="0vqSvFCHeL_Z8okukEM--4" value="&lt;i&gt;Assess the correctness of the result relative to an expected value.&lt;/i&gt;" style="rounded=0;whiteSpace=wrap;html=1;align=left;strokeColor=#d6b656;fillColor=#fff2cc;shadow=1;" vertex="1" parent="1">
          <mxGeometry x="360" y="360" width="200" height="40" as="geometry" />
        </mxCell>
      </root>
    </mxGraphModel>
  </diagram>
  <diagram id="nf8NRqLGR6cPd0AR6Dsh" name="Dag">
    <mxGraphModel dx="1434" dy="956" grid="1" gridSize="10" guides="1" tooltips="1" connect="1" arrows="1" fold="1" page="1" pageScale="1" pageWidth="850" pageHeight="1100" math="0" shadow="0">
      <root>
        <mxCell id="0" />
        <mxCell id="1" parent="0" />
        <mxCell id="jZFHqwDzUYTCYzIOJgfe-1" value="" style="rounded=0;whiteSpace=wrap;html=1;fillColor=#4D4D4D;fontColor=#ffffff;strokeColor=#999999;" vertex="1" parent="1">
          <mxGeometry x="40" y="40" width="440" height="480" as="geometry" />
        </mxCell>
        <mxCell id="5aWoC6PVFufj_GKOB54f-1" value="A" style="ellipse;whiteSpace=wrap;html=1;aspect=fixed;fontSize=17;fontStyle=1;fillColor=#CCFFFF;strokeColor=#6c8ebf;" parent="1" vertex="1">
          <mxGeometry x="160" y="80" width="40" height="40" as="geometry" />
        </mxCell>
        <mxCell id="5aWoC6PVFufj_GKOB54f-2" value="B" style="ellipse;whiteSpace=wrap;html=1;aspect=fixed;fontSize=17;fontStyle=1;fillColor=#CCFFFF;strokeColor=#6c8ebf;" parent="1" vertex="1">
          <mxGeometry x="80" y="200" width="40" height="40" as="geometry" />
        </mxCell>
        <mxCell id="5aWoC6PVFufj_GKOB54f-3" value="C" style="ellipse;whiteSpace=wrap;html=1;aspect=fixed;fontSize=17;fontStyle=1;fillColor=#CCFFFF;strokeColor=#6c8ebf;" parent="1" vertex="1">
          <mxGeometry x="240" y="200" width="40" height="40" as="geometry" />
        </mxCell>
        <mxCell id="5aWoC6PVFufj_GKOB54f-4" value="D" style="ellipse;whiteSpace=wrap;html=1;aspect=fixed;fontSize=17;fontStyle=1;fillColor=#CCFFFF;strokeColor=#6c8ebf;" parent="1" vertex="1">
          <mxGeometry x="160" y="320" width="40" height="40" as="geometry" />
        </mxCell>
        <mxCell id="5aWoC6PVFufj_GKOB54f-5" value="E" style="ellipse;whiteSpace=wrap;html=1;aspect=fixed;fontSize=17;fontStyle=1;fillColor=#CCFFFF;strokeColor=#6c8ebf;" parent="1" vertex="1">
          <mxGeometry x="400" y="80" width="40" height="40" as="geometry" />
        </mxCell>
        <mxCell id="5aWoC6PVFufj_GKOB54f-6" value="F" style="ellipse;whiteSpace=wrap;html=1;aspect=fixed;fontSize=17;fontStyle=1;fillColor=#CCFFFF;strokeColor=#6c8ebf;" parent="1" vertex="1">
          <mxGeometry x="280" y="440" width="40" height="40" as="geometry" />
        </mxCell>
        <mxCell id="5aWoC6PVFufj_GKOB54f-7" value="" style="endArrow=classic;html=1;rounded=0;fontSize=17;fontStyle=1;fillColor=#dae8fc;strokeColor=#00FF00;" parent="1" source="5aWoC6PVFufj_GKOB54f-1" target="5aWoC6PVFufj_GKOB54f-2" edge="1">
          <mxGeometry width="50" height="50" relative="1" as="geometry">
            <mxPoint x="400" y="510" as="sourcePoint" />
            <mxPoint x="190" y="220" as="targetPoint" />
          </mxGeometry>
        </mxCell>
        <mxCell id="5aWoC6PVFufj_GKOB54f-8" value="" style="endArrow=classic;html=1;rounded=0;fontSize=17;fontStyle=1;fillColor=#dae8fc;strokeColor=#00FF00;" parent="1" source="5aWoC6PVFufj_GKOB54f-1" target="5aWoC6PVFufj_GKOB54f-3" edge="1">
          <mxGeometry width="50" height="50" relative="1" as="geometry">
            <mxPoint x="377.90999999999997" y="170.31" as="sourcePoint" />
            <mxPoint x="319.90999999999997" y="256.31" as="targetPoint" />
          </mxGeometry>
        </mxCell>
        <mxCell id="5aWoC6PVFufj_GKOB54f-9" value="" style="endArrow=classic;html=1;rounded=0;fontSize=17;fontStyle=1;fillColor=#dae8fc;strokeColor=#00FF00;" parent="1" source="5aWoC6PVFufj_GKOB54f-2" target="5aWoC6PVFufj_GKOB54f-4" edge="1">
          <mxGeometry width="50" height="50" relative="1" as="geometry">
            <mxPoint x="62.09" y="240.31" as="sourcePoint" />
            <mxPoint x="120.09" y="326.31" as="targetPoint" />
          </mxGeometry>
        </mxCell>
        <mxCell id="5aWoC6PVFufj_GKOB54f-10" value="" style="endArrow=classic;html=1;rounded=0;fontSize=17;fontStyle=1;fillColor=#dae8fc;strokeColor=#00FF00;" parent="1" source="5aWoC6PVFufj_GKOB54f-3" target="5aWoC6PVFufj_GKOB54f-4" edge="1">
          <mxGeometry width="50" height="50" relative="1" as="geometry">
            <mxPoint x="222" y="234" as="sourcePoint" />
            <mxPoint x="280" y="320" as="targetPoint" />
          </mxGeometry>
        </mxCell>
        <mxCell id="5aWoC6PVFufj_GKOB54f-11" value="" style="endArrow=classic;html=1;rounded=0;fontSize=17;fontStyle=1;fillColor=#dae8fc;strokeColor=#00FF00;" parent="1" source="5aWoC6PVFufj_GKOB54f-5" target="5aWoC6PVFufj_GKOB54f-6" edge="1">
          <mxGeometry width="50" height="50" relative="1" as="geometry">
            <mxPoint x="396" y="154" as="sourcePoint" />
            <mxPoint x="454" y="240" as="targetPoint" />
          </mxGeometry>
        </mxCell>
        <mxCell id="5aWoC6PVFufj_GKOB54f-12" value="" style="endArrow=classic;html=1;rounded=0;fontSize=17;fontStyle=1;fillColor=#dae8fc;strokeColor=#00FF00;" parent="1" source="5aWoC6PVFufj_GKOB54f-4" target="5aWoC6PVFufj_GKOB54f-6" edge="1">
          <mxGeometry width="50" height="50" relative="1" as="geometry">
            <mxPoint x="182" y="417" as="sourcePoint" />
            <mxPoint x="240" y="503" as="targetPoint" />
          </mxGeometry>
        </mxCell>
      </root>
    </mxGraphModel>
  </diagram>
</mxfile>
